<!--
  -
  -                         _ _        ____  ____
  -               _____   _(_) |_ __ _|  _ \| __ )
  -              / _ \ \ / / | __/ _` | | | |  _ \
  -             |  __/\ V /| | || (_| | |_| | |_) |
  -              \___| \_/ |_|\__\__,_|____/|____/
  -
  -   Copyright (c) 2025
  -
  -   Licensed under the Business Source License, Version 1.1 (the "License");
  -   you may not use this file except in compliance with the License.
  -   You may obtain a copy of the License at
  -
  -   https://github.com/FgForrest/evitaDB/blob/master/LICENSE
  -
  -   Unless required by applicable law or agreed to in writing, software
  -   distributed under the License is distributed on an "AS IS" BASIS,
  -   WITHOUT WARRANTIES OR CONDITIONS OF ANY KIND, either express or implied.
  -   See the License for the specific language governing permissions and
  -   limitations under the License.
  -->

<svg width="24" height="19" viewBox="0 0 24 19" fill="none" xmlns="http://www.w3.org/2000/svg">
    <path d="M20.3303 1.52336C18.7541 0.802263 17.0891 0.288815 15.3789 0C15.1448 0.419065 14.9334 0.849456 14.7446 1.28928C12.923 1.01557 11.0712 1.01557 9.24961 1.28928C9.06084 0.849456 8.84942 0.419065 8.61535 0C6.90511 0.29259 5.23829 0.806039 3.66019 1.52713C0.526644 6.16327 -0.322811 10.6843 0.101917 15.1411C1.93674 16.4964 3.99054 17.529 6.17458 18.1897C6.66538 17.529 7.10143 16.8268 7.47519 16.0925C6.76542 15.8282 6.0802 15.4997 5.42706 15.1146C5.59884 14.9901 5.76684 14.8617 5.92918 14.7371C9.77438 16.5455 14.2255 16.5455 18.0707 14.7371C18.235 14.8711 18.403 14.9995 18.5729 15.1146C17.9197 15.5016 17.2326 15.8282 16.5209 16.0944C16.8947 16.8287 17.3289 17.529 17.8216 18.1897C20.0075 17.5309 22.0632 16.5002 23.898 15.143C24.3963 9.9745 23.0467 5.49503 20.3303 1.52336ZM8.01318 12.4002C6.82961 12.4002 5.85179 11.3261 5.85179 10.0047C5.85179 8.68332 6.79563 7.5998 8.0094 7.5998C9.22318 7.5998 10.1934 8.68332 10.1727 10.0047C10.1519 11.3261 9.21941 12.4002 8.01318 12.4002ZM15.9867 12.4002C14.8013 12.4002 13.8272 11.3261 13.8272 10.0047C13.8272 8.68332 14.7711 7.5998 15.9867 7.5998C17.2024 7.5998 18.1651 8.68332 18.1444 10.0047C18.1236 11.3261 17.193 12.4002 15.9867 12.4002Z" fill="#ffffff"/>
</svg>
