<svg width="18" height="21" viewBox="0 0 18 21" fill="none" xmlns="http://www.w3.org/2000/svg">
    <path d="M9 12.27L7.64 11C6.09 9.57 4.16 8.57 2 8.18V15.13C4.61 15.47 7 16.47 9 17.95C11 16.47 13.39 15.47 16 15.13V8.18C13.84 8.57 11.91 9.57 10.36 11M16 6.15C16.65 6.05 17.32 6 18 6V17C14.5 17 11.36 18.35 9 20.54C6.64 18.35 3.5 17 0 17V6C0.68 6 1.35 6.05 2 6.15C4.69 6.56 7.1 7.78 9 9.54C10.9 7.78 13.31 6.56 16 6.15ZM9 4C9.27 4 9.5 3.9 9.71 3.71C9.9 3.5 10 3.27 10 3C10 2.73 9.9 2.5 9.71 2.29C9.5 2.11 9.27 2 9 2C8.73 2 8.5 2.11 8.29 2.29C8.11 2.5 8 2.74 8 3C8 3.26 8.11 3.5 8.29 3.71C8.5 3.9 8.74 4 9 4ZM11.12 5.12C10.56 5.68 9.8 6 9 6C8.2 6 7.44 5.68 6.88 5.12C6.32 4.56 6 3.8 6 3C6 2.2 6.32 1.44 6.88 0.88C7.44 0.32 8.2 0 9 0C9.8 0 10.56 0.32 11.12 0.88C11.68 1.44 12 2.2 12 3C12 3.8 11.68 4.56 11.12 5.12Z" fill="#ffffff"/>
</svg>
